<?xml version="1.0" encoding="UTF-8" standalone="no"?>
<svg version="1.1" id="Layer_1" xmlns="http://www.w3.org/2000/svg" xmlns:xlink="http://www.w3.org/1999/xlink" x="0px" y="0px"
	 width="634px" height="296px" viewBox="0 0 634 296" enable-background="new 0 0 634 296" xml:space="preserve">
 <rect y="44" id="svg_1" height="42" width="42" fill="#FFFFFF" x="212"/>
  <rect id="svg_2" height="42" width="42" fill="#FFFFFF" y="44" x="170"/>
  <rect id="svg_3" height="42" width="42" fill="#FFFFFF" y="86" x="86"/>
  <rect id="svg_4" height="42" width="42" fill="#FFFFFF" y="128" x="44"/>
  <rect id="svg_8" height="42" width="42" fill="#FFFFFF" y="170" x="44"/>
  <rect x="2" id="svg_9" height="42" width="42" fill="#FFFFFF" y="170"/>
  <rect id="svg_10" height="42" width="42" fill="#FFFFFF" y="44" x="128"/>
  <rect id="svg_11" height="42" width="42" fill="#FFFFFF" y="128" x="86"/>
  <rect id="svg_12" height="42" width="42" fill="#FFFFFF" y="170" x="86"/>
  <rect id="svg_13" height="42" width="42" fill="#FFFFFF" y="212" x="86"/>
  <rect id="svg_14" height="42" width="42" fill="#FFFFFF" y="254" x="128"/>
  <rect id="svg_16" height="42" width="42" fill="#FFFFFF" y="86" x="128"/>
  <rect id="svg_17" height="42" width="42" fill="#FFFFFF" y="86" x="170"/>
  <rect id="svg_18" height="42" width="42" fill="#FFFFFF" y="86" x="212"/>
  <rect id="svg_19" height="42" width="42" fill="#FFFFFF" y="86" x="254"/>
  <rect id="svg_20" height="42" width="42" fill="#FFFFFF" y="44" x="296"/>
  <rect y="44" id="svg_21" height="42" width="42" fill="#FFFFFF" x="254"/>
  <rect id="svg_22" height="42" width="42" fill="#FFFFFF" y="86" x="296"/>
  <rect id="svg_23" height="42" width="42" fill="#FFFFFF" y="86" x="338"/>
  <rect stroke="null" id="svg_27" height="42" width="42" fill="#FFFFFF" y="170" x="422"/>
  <rect id="svg_28" height="42" width="42" fill="#FFFFFF" y="128" x="338"/>
  <rect id="svg_29" height="42" width="42" fill="#FFFFFF" y="170" x="338"/>
  <rect id="svg_30" height="42" width="42" fill="#FFFFFF" y="212" x="338"/>
  <rect id="svg_32" height="42" width="42" fill="#FFFFFF" y="170" x="380"/>
  <rect id="svg_34" height="42" width="42" fill="#FFFFFF" y="210" x="506"/>
  <rect id="svg_36" height="42" width="42" fill="#FFFFFF" y="212" x="128"/>
  <rect id="svg_37" height="42" width="42" fill="#FFFFFF" y="212" x="170"/>
  <rect id="svg_39" height="42" width="42" fill="#FFFFFF" y="212" x="254"/>
  <rect id="svg_40" height="42" width="42" fill="#FFFFFF" y="212" x="296"/>
  <rect id="svg_41" height="42" width="42" fill="#FFFFFF" y="170" x="128"/>
  <rect id="svg_42" height="42" width="42" fill="#FFFFFF" y="170" x="170"/>
  <rect id="svg_43" height="42" width="42" fill="#FFFFFF" y="170" x="212"/>
  <rect id="svg_44" height="42" width="42" fill="#FFFFFF" y="170" x="254"/>
  <rect id="svg_45" height="42" width="42" fill="#FFFFFF" y="170" x="296"/>
  <rect id="svg_46" height="42" width="42" fill="#FFFFFF" y="128" x="170"/>
  <rect id="svg_48" height="42" width="42" fill="#FFFFFF" y="128" x="254"/>
  <rect id="svg_49" height="42" width="42" fill="#FFFFFF" y="210" x="464"/>
  <rect id="svg_50" height="42" width="42" fill="#FFFFFF" y="210" x="422"/>
  <rect id="svg_51" height="42" width="42" fill="#FFFFFF" y="252" x="463"/>
  <rect id="svg_52" height="42" width="42" fill="#FFFFFF" y="170" x="506"/>
  <rect id="svg_53" height="42" width="42" fill="#FFFFFF" y="170" x="464"/>
  <rect id="svg_54" height="42" width="42" fill="#FFFFFF" y="170" x="590"/>
  <rect x="548" id="svg_55" height="42" width="42" fill="#FFFFFF" y="170"/>
  <rect stroke="null" id="svg_56" height="42" width="42" fill="#FFFFFF" y="128" x="422"/>
  <rect id="svg_57" height="42" width="42" fill="#FFFFFF" y="128" x="506"/>
  <rect x="548" id="svg_59" height="42" width="42" fill="#FFFFFF" y="128"/>
  <rect id="svg_60" height="42" width="42" fill="#FFFFFF" y="86" x="380"/>
  <rect stroke="null" id="svg_61" height="42" width="42" fill="#FFFFFF" y="86" x="422"/>
  <rect id="svg_62" height="42" width="42" fill="#FFFFFF" y="86" x="506"/>
  <rect id="svg_63" height="42" width="42" fill="#FFFFFF" y="86" x="464"/>
  <rect id="svg_64" height="42" width="42" fill="#FFFFFF" y="44" x="338"/>
  <rect id="svg_65" height="42" width="42" fill="#FFFFFF" y="44" x="380"/>
  <rect stroke="null" id="svg_66" height="42" width="42" fill="#FFFFFF" y="44" x="422"/>
  <rect id="svg_67" height="42" width="42" fill="#FFFFFF" y="44" x="464"/>
  <rect y="2" id="svg_68" height="42" width="42" fill="#FFFFFF" x="212"/>
  <rect id="svg_69" height="42" width="42" fill="#FFFFFF" y="2" x="296"/>
  <rect y="2" id="svg_70" height="42" width="42" fill="#FFFFFF" x="254"/>
  <rect id="svg_71" height="42" width="42" fill="#FFFFFF" y="2" x="338"/>
  <rect id="svg_72" height="42" width="42" fill="#FFFFFF" y="2" x="380"/>
</svg>
